<?xml version="1.0" encoding="utf-8"?>
<!-- Generator: Adobe Illustrator 26.0.1, SVG Export Plug-In . SVG Version: 6.00 Build 0)  -->
<svg version="1.2" baseProfile="tiny" id="Layer_1" xmlns="http://www.w3.org/2000/svg" xmlns:xlink="http://www.w3.org/1999/xlink"
	 x="0px" y="0px" viewBox="0 0 7 15" overflow="visible" xml:space="preserve">
<path d="M5.8,14c-0.1,0-0.3,0-0.4-0.1c-0.1-0.1-0.3-0.2-0.3-0.3l-4.8-6C0.1,7.5,0,7.2,0,7c0-0.2,0.1-0.5,0.2-0.6l5-6
	C5.4,0.2,5.6,0,5.9,0c0.3,0,0.5,0.1,0.7,0.2C6.8,0.4,7,0.6,7,0.9c0,0.3-0.1,0.5-0.2,0.7L2.3,7l4.3,5.4c0.1,0.1,0.2,0.3,0.2,0.5
	c0,0.2,0,0.4-0.1,0.6c-0.1,0.2-0.2,0.3-0.4,0.4C6.2,14,6,14,5.8,14z"/>
</svg>
