<?xml version="1.0" encoding="utf-8"?>
<!-- Generator: Adobe Illustrator 26.0.1, SVG Export Plug-In . SVG Version: 6.00 Build 0)  -->
<svg version="1.2" baseProfile="tiny" id="Layer_1" xmlns="http://www.w3.org/2000/svg" xmlns:xlink="http://www.w3.org/1999/xlink"
	 x="0px" y="0px" viewBox="0 0 50 50" overflow="visible" xml:space="preserve">
<g>
	<path fill="#010101" d="M48.1,28.1h-9.7c-0.9,0-1.7-0.3-2.2-0.9s-0.9-1.5-0.9-2.2V8.7c0-0.9,0.3-1.7,0.9-2.2s1.5-0.9,2.2-0.9h9.7
		v3.3h-9.7v16.1h9.7V28.1z"/>
	<path fill="#010101" d="M28.9,8.7c1.8,0,3.3-1.5,3.3-3.3s-1.6-3.1-3.3-3.1c-1.8,0-3.3,1.5-3.3,3.3S27.1,8.7,28.9,8.7z"/>
	<path fill="#010101" d="M15.9,31.6V18.4h-3.3v13.2c-1.1,0.3-2,1.1-2.6,2.1c-0.6,1-0.8,2.1-0.6,3.3c0.2,1.1,0.8,2.1,1.7,2.9
		c0.9,0.8,2,1.1,3.1,1.1s2.3-0.5,3.2-1.1c0.9-0.8,1.5-1.8,1.7-2.9c0.2-1.1,0-2.2-0.6-3.3C17.9,32.7,17,31.9,15.9,31.6z"/>
	<path fill="#010101" d="M14.3,47.3c-2.2,0-4.4-0.7-6.2-1.9S4.9,42.5,4,40.3c-0.9-2-1.1-4.3-0.7-6.4c0.5-2.1,1.5-4.2,3-5.7V10.3
		c0-2.1,0.9-4.2,2.4-5.7c1.5-1.5,3.6-2.4,5.7-2.4s4.2,0.9,5.7,2.4c1.5,1.5,2.4,3.6,2.4,5.7v17.9c1.6,1.6,2.6,3.6,3,5.7
		c0.5,2.1,0.2,4.4-0.7,6.4s-2.3,3.8-4.2,5.1C18.7,46.6,16.6,47.3,14.3,47.3z M14.3,5.6c-1.2,0-2.5,0.6-3.4,1.5
		c-0.9,0.9-1.5,2.1-1.5,3.4v19.2l-0.6,0.4c-1.2,1.1-2,2.5-2.5,4c-0.3,1.6-0.2,3.3,0.3,4.7c0.6,1.6,1.6,2.8,2.9,3.7s2.9,1.5,4.6,1.5
		c1.6,0,3.3-0.5,4.6-1.5c1.4-0.9,2.4-2.2,2.9-3.7c0.6-1.6,0.7-3.2,0.3-4.7c-0.3-1.6-1.2-3-2.5-4.1l-0.6-0.4V10.3
		c0-1.2-0.6-2.5-1.5-3.4C16.8,6,15.6,5.6,14.3,5.6z"/>
</g>
</svg>
