<?xml version="1.0" encoding="utf-8"?>
<!-- Generator: Adobe Illustrator 26.0.1, SVG Export Plug-In . SVG Version: 6.00 Build 0)  -->
<svg version="1.1" id="Layer_1" xmlns="http://www.w3.org/2000/svg" xmlns:xlink="http://www.w3.org/1999/xlink" x="0px" y="0px"
	 viewBox="0 0 50 50" style="enable-background:new 0 0 50 50;" xml:space="preserve">
<style type="text/css">
	.st0{fill:#010101;}
</style>
<g>
	<path class="st0" d="M37.5,18.2c-2.6-3.8-6.5-8-11.7-12.5l-0.3-0.2l-0.3,0.2c-5.2,4.4-9.1,8.6-11.7,12.5c-2.7,3.9-4,7.6-4,10.9
		c0,10.6,8.2,16.4,16,16.4s16-5.8,16-16.4C41.5,25.7,40.2,22.1,37.5,18.2z M25.5,41.5c-6.8,0-12-5.3-12-12.4c0-2.4,1-5.1,3-8.1
		c2-3.1,5.1-6.5,9-10.2c4,3.6,7,7.1,9,10.2c2,3,3,5.8,3,8.1C37.5,36.1,32.3,41.5,25.5,41.5z"/>
	<path class="st0" d="M27.5,37.9c0,0.8-0.6,1.5-1.4,1.5h0c-0.2,0-0.4,0-0.6,0c-4.2,0-8.6-2.5-9.7-8.2c0-0.2,0-0.4,0-0.7
		c0.1-0.2,0.2-0.4,0.3-0.6c0.1-0.2,0.3-0.3,0.5-0.4c0.2-0.1,0.4-0.1,0.6-0.1c0.7,0,1.3,0.5,1.5,1.2c0.8,4.3,4.3,6,7.3,5.8
		c0.4,0,0.8,0.1,1.1,0.4C27.3,37.1,27.5,37.5,27.5,37.9z"/>
</g>
</svg>
