<?xml version="1.0" encoding="utf-8"?>
<!-- Generator: Adobe Illustrator 26.0.1, SVG Export Plug-In . SVG Version: 6.00 Build 0)  -->
<svg version="1.2" baseProfile="tiny" id="Layer_1" xmlns="http://www.w3.org/2000/svg" xmlns:xlink="http://www.w3.org/1999/xlink"
	 x="0px" y="0px" viewBox="0 0 50 50" overflow="visible" xml:space="preserve">
<g id="Right">
	<path id="BackgroundRight" fill="#FBFCFD" d="M37.6,23.9h6.7V34c0,0.6-0.2,1.1-0.6,1.5c-0.4,0.4-0.9,0.6-1.4,0.6H29.9
		c-0.5,0-1-0.2-1.4-0.6c-0.4-0.4-0.6-1-0.6-1.5V23.9h6.7h1.1v-1.1V18c0-2.7,1-5.3,2.9-7.2c1.8-1.9,4.3-3,6.9-3h3.6V10
		c0,2.7-1,5.3-2.9,7.2c-1.8,1.9-4.3,3-6.9,3h-1.5h-1.1v1.1v1.6v1.1L37.6,23.9L37.6,23.9z M26,6.2L26,6.2c1.7,0,3.3,0.4,4.8,1.2
		c1.3,0.7,2.4,1.6,3.3,2.8c-1.5,2.3-2.3,5-2.3,7.7v0.5c-2.7-0.1-5.2-1.2-7.1-3.2c-2-2.1-3.1-4.9-3.1-7.8V6.2H26z"/>
	<path id="OutlineRight" fill="#191B1A" d="M42.2,37.2H29.9c-0.8,0-1.5-0.3-2.1-0.9c-0.6-0.6-0.9-1.4-0.9-2.2V22.9h7.7V18
		c0-2.9,1.1-5.8,3.1-7.9c2-2.1,4.7-3.3,7.6-3.3h4.6V10c0,2.9-1.1,5.8-3.1,7.9c-2,2.1-4.7,3.3-7.6,3.3h-1.6v1.7l7.7,0V34
		c0,0.8-0.3,1.6-0.9,2.2C43.8,36.8,43,37.2,42.2,37.2z M28.8,24.9V34c0,0.3,0.1,0.6,0.3,0.8c0.2,0.2,0.4,0.3,0.7,0.3h12.3
		c0.3,0,0.5-0.1,0.7-0.3c0.2-0.2,0.3-0.5,0.3-0.8v-9.2H28.8z M36.5,19.1h2.6c2.3,0,4.5-0.9,6.1-2.7c1.6-1.7,2.6-4.1,2.6-6.5V8.8
		h-2.6c-2.3,0-4.5,0.9-6.2,2.7c-1.6,1.7-2.6,4.1-2.6,6.5V19.1z M32.9,19.6l-1,0c-3-0.1-5.7-1.3-7.8-3.5c-2.1-2.2-3.4-5.3-3.4-8.5
		V5.2H26c1.8,0,3.7,0.5,5.3,1.3c1.4,0.8,2.7,1.8,3.6,3.1l0.4,0.6L35,10.8c-1.4,2.1-2.1,4.6-2.1,7.2V19.6z M22.7,7.2v0.3
		c0,2.6,1,5.2,2.8,7.1c1.5,1.5,3.4,2.5,5.4,2.8c0.1-2.5,0.8-4.9,2-7.1c-0.7-0.8-1.6-1.5-2.6-2C29,7.6,27.5,7.2,26,7.2H22.7z"/>
</g>
<g id="Left">
	<path id="BackgroundLeft" fill="#FBFCFD" d="M15.5,32.8h5.9v9c0,0.5-0.2,1-0.5,1.4c-0.3,0.4-0.8,0.5-1.3,0.5H8.7
		c-0.5,0-0.9-0.2-1.3-0.5c-0.3-0.4-0.5-0.8-0.5-1.4v-9h5.9h0.9v-0.9v-4.3c0-2.4,0.9-4.7,2.5-6.4c1.6-1.7,3.8-2.6,6.1-2.6h3.2v1.9
		c0,2.4-0.9,4.7-2.5,6.4c-1.6,1.7-3.8,2.6-6.1,2.6h-1.4h-0.9v0.9v1.4v0.9L15.5,32.8L15.5,32.8z M5.3,17.1L5.3,17.1
		c1.5,0,3,0.4,4.3,1.1c1.1,0.6,2.1,1.5,3,2.5c-1.3,2-2,4.4-2,6.9V28C8.1,28,5.8,27,4.1,25.2c-1.8-1.8-2.7-4.3-2.7-6.9v-1.2H5.3z"/>
	<path id="OutlineLeft" fill="#191B1A" d="M19.6,44.6H8.7c-0.7,0-1.4-0.3-1.9-0.8c-0.5-0.5-0.8-1.3-0.8-2v-9.9h6.8v-4.3
		c0-2.6,1-5.2,2.8-7c1.8-1.9,4.2-2.9,6.7-2.9h4.1v2.8c0,2.6-1,5.2-2.8,7c-1.8,1.9-4.2,2.9-6.7,2.9h-1.4v1.5l6.8,0v9.9
		c0,0.7-0.3,1.5-0.8,2C21,44.3,20.4,44.6,19.6,44.6z M7.8,33.7v8.1c0,0.3,0.1,0.5,0.3,0.7c0.2,0.2,0.4,0.3,0.6,0.3h10.9
		c0.2,0,0.5-0.1,0.6-0.3c0.2-0.2,0.3-0.5,0.3-0.7v-8.1H7.8z M14.6,28.6h2.3c2.1,0,4-0.8,5.5-2.4c1.5-1.5,2.3-3.6,2.3-5.8v-1h-2.3
		c-2.1,0-4,0.8-5.5,2.4c-1.5,1.5-2.3,3.6-2.3,5.8V28.6z M11.4,28.9l-0.9,0c-2.6-0.1-5.1-1.2-6.9-3.1c-1.9-2-3-4.7-3-7.5v-2.1h4.7
		c1.6,0,3.2,0.4,4.7,1.2c1.2,0.7,2.4,1.6,3.2,2.7l0.4,0.5l-0.3,0.5c-1.2,1.9-1.9,4.1-1.9,6.4V28.9z M2.3,18v0.3
		c0,2.3,0.9,4.6,2.5,6.3c1.3,1.4,3,2.2,4.8,2.5c0.1-2.2,0.7-4.4,1.8-6.3c-0.7-0.7-1.4-1.3-2.3-1.8c-1.2-0.6-2.5-1-3.9-1H2.3z"/>
</g>
</svg>
