<?xml version="1.0" encoding="utf-8"?>
<!-- Generator: Adobe Illustrator 26.0.1, SVG Export Plug-In . SVG Version: 6.00 Build 0)  -->
<svg version="1.2" baseProfile="tiny" id="Layer_1" xmlns="http://www.w3.org/2000/svg" xmlns:xlink="http://www.w3.org/1999/xlink"
	 x="0px" y="0px" viewBox="0 0 50 50" overflow="visible" xml:space="preserve">
<path fill="#010101" d="M27.1,47.5h-4v-6.1h4V47.5z M39.3,42.3l-3.6-3.7l2.9-2.9l3.7,3.7L39.3,42.3z M10.7,42.3l-2.9-2.9l3.6-3.7
	l2.9,2.9L10.7,42.3z M25,37.4c-6.8,0-12.3-5.5-12.3-12.4c0-6.8,5.5-12.4,12.3-12.4S37.3,18.1,37.3,25C37.3,31.8,31.8,37.4,25,37.4z
	 M25,15.3c-5.3,0-9.6,4.3-9.6,9.7s4.3,9.7,9.6,9.7s9.6-4.3,9.6-9.7S30.3,15.3,25,15.3z M47.5,27.1h-6.2v-4h6.2V27.1z M8.7,27.1H2.5
	v-4h6.2V27.1z M38.6,14.3l-2.9-2.9l3.6-3.6l2.9,2.9L38.6,14.3z M11.4,14.3l-3.6-3.6l2.9-2.9l3.7,3.6L11.4,14.3z M27.1,8.6h-4V2.5h4
	V8.6z"/>
</svg>
