<?xml version="1.0" encoding="utf-8"?>
<!-- Generator: Adobe Illustrator 26.0.1, SVG Export Plug-In . SVG Version: 6.00 Build 0)  -->
<svg version="1.2" baseProfile="tiny" id="Layer_1" xmlns="http://www.w3.org/2000/svg" xmlns:xlink="http://www.w3.org/1999/xlink"
	 x="0px" y="0px" viewBox="0 0 50 50" overflow="visible" xml:space="preserve">
<g>
		<path fill="#010101" d="M23.9,4.9v10.5c0,4.5-3.5,6.2-6.3,6.6v23.7c0,0.9-0.7,1.6-1.6,1.6c-0.9,0-1.6-0.7-1.6-1.6V22
			c-2.7-0.4-6.3-2.2-6.3-6.6V4.9c0-0.9,0.7-1.6,1.6-1.6c0.9,0,1.6,0.7,1.6,1.6v10.5c0,2.2,1.8,3.1,3.2,3.5v-15
			c0-0.9,0.7-1.6,1.6-1.6c0.9,0,1.6,0.7,1.6,1.6v15c1.4-0.3,3.1-1.2,3.1-3.5V4.9c0-0.9,0.7-1.6,1.6-1.6C23.2,3.3,23.9,4,23.9,4.9z"
			/>
		<path fill="#010101" d="M41.2,47.3c-0.9,0-1.6-0.7-1.6-1.6V23.2h-6.8c-0.9,0-1.6-0.7-1.6-1.6v-9.4c0-7.9,6.5-9.9,9.9-9.9
			c0.9,0,1.6,0.7,1.6,1.6v41.8C42.7,46.6,42,47.3,41.2,47.3z M34.4,20.1h5.3V5.6c-2,0.4-5.3,1.9-5.3,6.6V20.1z"/>
</g>
</svg>
