<?xml version="1.0" encoding="utf-8"?>
<!-- Generator: Adobe Illustrator 24.0.0, SVG Export Plug-In . SVG Version: 6.00 Build 0)  -->
<svg version="1.1" id="Layer_1" xmlns="http://www.w3.org/2000/svg" xmlns:xlink="http://www.w3.org/1999/xlink" x="0px" y="0px"
	 viewBox="0 0 50 50" style="enable-background:new 0 0 50 50;" xml:space="preserve">
<style type="text/css">
	.st0{clip-path:url(#SVGID_2_);}
</style>
<g>
	<defs>
		<rect id="SVGID_1_" x="3.75" y="5.18" width="40.09" height="40.09"/>
	</defs>
	<clipPath id="SVGID_2_">
		<use xlink:href="#SVGID_1_"  style="overflow:visible;"/>
	</clipPath>
	<g class="st0">
		<path d="M40.5,8.94h-5.43V6.43c0-0.33-0.13-0.65-0.37-0.89c-0.23-0.24-0.55-0.37-0.89-0.37c-0.33,0-0.65,0.13-0.89,0.37
			c-0.24,0.23-0.37,0.55-0.37,0.89v2.51h-7.52V6.43c0-0.16-0.03-0.33-0.1-0.48c-0.06-0.15-0.16-0.29-0.27-0.41
			c-0.12-0.12-0.25-0.21-0.41-0.27c-0.15-0.06-0.31-0.1-0.48-0.1c-0.33,0-0.65,0.13-0.89,0.37c-0.24,0.23-0.37,0.55-0.37,0.89v2.51
			h-7.52V6.43c0-0.16-0.03-0.33-0.1-0.48c-0.06-0.15-0.16-0.29-0.27-0.41c-0.12-0.12-0.25-0.21-0.41-0.27
			c-0.15-0.06-0.31-0.1-0.48-0.1c-0.33,0-0.65,0.13-0.89,0.37c-0.24,0.23-0.37,0.55-0.37,0.89v2.51H7.09
			c-0.89,0-1.74,0.35-2.36,0.98c-0.63,0.63-0.98,1.48-0.98,2.36v29.65c0,0.89,0.35,1.74,0.98,2.36c0.63,0.63,1.48,0.98,2.36,0.98
			H40.5c0.89,0,1.74-0.35,2.36-0.98c0.63-0.63,0.98-1.48,0.98-2.36V12.28c0-0.89-0.35-1.74-0.98-2.36
			C42.23,9.29,41.39,8.94,40.5,8.94z M41.33,41.93c0,0.22-0.09,0.43-0.24,0.59c-0.16,0.16-0.37,0.24-0.59,0.25H7.09
			c-0.22,0-0.43-0.09-0.59-0.24c-0.16-0.16-0.24-0.37-0.24-0.59V12.28c0-0.22,0.09-0.43,0.25-0.59c0.16-0.16,0.37-0.24,0.59-0.24
			h5.43v2.51c0,0.33,0.13,0.65,0.37,0.89c0.23,0.24,0.55,0.37,0.89,0.37c0.33,0,0.65-0.13,0.89-0.37c0.24-0.23,0.37-0.55,0.37-0.89
			v-2.51h7.52v2.51c0,0.33,0.13,0.65,0.37,0.89c0.23,0.24,0.55,0.37,0.89,0.37c0.33,0,0.65-0.13,0.89-0.37
			c0.24-0.23,0.37-0.55,0.37-0.89v-2.51h7.52v2.51c0,0.33,0.13,0.65,0.37,0.89c0.23,0.24,0.55,0.37,0.89,0.37
			c0.33,0,0.65-0.13,0.89-0.37c0.24-0.23,0.37-0.55,0.37-0.89v-2.51h5.43c0.22,0,0.43,0.09,0.59,0.24c0.16,0.16,0.24,0.37,0.24,0.59
			L41.33,41.93z"/>
		<path d="M12.52,20.21h5.01v3.76h-5.01V20.21z"/>
		<path d="M12.52,26.48h5.01v3.76h-5.01V26.48z"/>
		<path d="M12.52,32.74h5.01v3.76h-5.01V32.74z"/>
		<path d="M21.29,32.74h5.01v3.76h-5.01V32.74z"/>
		<path d="M21.29,26.48h5.01v3.76h-5.01V26.48z"/>
		<path d="M21.29,20.21h5.01v3.76h-5.01V20.21z"/>
		<path d="M30.06,32.74h5.01v3.76h-5.01V32.74z"/>
		<path d="M30.06,26.48h5.01v3.76h-5.01V26.48z"/>
		<path d="M30.06,20.21h5.01v3.76h-5.01V20.21z"/>
	</g>
</g>
</svg>
