<?xml version="1.0" encoding="utf-8"?>
<!-- Generator: Adobe Illustrator 24.0.0, SVG Export Plug-In . SVG Version: 6.00 Build 0)  -->
<svg version="1.1" id="Layer_1" xmlns="http://www.w3.org/2000/svg" xmlns:xlink="http://www.w3.org/1999/xlink" x="0px" y="0px"
	 viewBox="0 0 50 50" style="enable-background:new 0 0 50 50;" xml:space="preserve">
<style type="text/css">
	.st0{fill:none;stroke:#4B4B4B;stroke-width:0.2835;stroke-miterlimit:10;}
	.st1{fill:#FEED53;}
	.st2{fill:none;stroke:#4B4B4B;stroke-width:0.2835;stroke-linecap:round;stroke-linejoin:round;}
</style>
<path class="st0" d="M26.95,23.91l0.7,1.25"/>
<g>
	<ellipse class="st1" cx="25.87" cy="26.65" rx="10.68" ry="10.54"/>
</g>
<path class="st0" d="M33.86,33.07c3.77-4.68,3.21-11.39-1.26-14.99c-4.47-3.6-11.14-2.72-14.91,1.95
	c-3.77,4.68-3.21,11.39,1.26,14.99C23.41,38.62,30.09,37.75,33.86,33.07z"/>
<path class="st0" d="M31.35,31.05l1.23,1.04"/>
<path class="st0" d="M30.05,32.45l1.09,1.17"/>
<path class="st0" d="M28.68,33.59l0.89,1.24"/>
<path class="st0" d="M27.18,34.6l0.7,1.25"/>
<path class="st0" d="M32.34,29.65l1.31,0.9"/>
<path class="st2" d="M19.83,29.63c0.03-0.09,0.23-0.83,0.26-0.92c2.22,0.04,2.33-0.03,2.66-1.13c0.62-2.06,0.8-2.43,1.43-4.5
	c0.22-0.72,0.18-0.88-0.86-1.08l-0.63-0.12c0.02-0.08,0.17-0.78,0.19-0.85c1.53,0,3.06-0.1,4.58-0.3l-2.06,7.12
	c-0.32,1.11-0.28,1.2,1.85,1.61c-0.02,0.09-0.22,0.83-0.25,0.92L19.83,29.63z"/>
<g>
	<ellipse class="st1" cx="25.77" cy="36.94" rx="10.68" ry="10.54"/>
</g>
<path class="st0" d="M33.76,43.36c3.77-4.68,3.21-11.39-1.26-14.99c-4.47-3.6-11.14-2.72-14.91,1.95
	c-3.77,4.68-3.21,11.39,1.26,14.99C23.31,48.91,29.99,48.04,33.76,43.36z"/>
<path class="st0" d="M31.25,41.34l1.23,1.04"/>
<path class="st0" d="M29.95,42.74l1.09,1.17"/>
<path class="st0" d="M28.58,43.88l0.89,1.24"/>
<path class="st0" d="M27.08,44.89l0.7,1.25"/>
<path class="st0" d="M32.25,39.94l1.31,0.9"/>
<path class="st2" d="M19.74,39.92c0.03-0.09,0.23-0.83,0.26-0.92c2.22,0.04,2.33-0.03,2.66-1.13c0.62-2.06,0.8-2.43,1.43-4.5
	c0.22-0.72,0.18-0.88-0.86-1.08l-0.63-0.12c0.02-0.08,0.17-0.78,0.19-0.85c1.53,0,3.06-0.1,4.58-0.3l-2.06,7.12
	c-0.32,1.11-0.28,1.2,1.85,1.61c-0.02,0.09-0.22,0.83-0.25,0.92L19.74,39.92z"/>
<g>
	<ellipse class="st1" cx="25.64" cy="15.96" rx="10.68" ry="10.54"/>
</g>
<path class="st0" d="M33.63,22.38C37.4,17.71,36.84,11,32.37,7.4c-4.47-3.6-11.14-2.72-14.91,1.95c-3.77,4.68-3.21,11.39,1.26,14.99
	C23.18,27.94,29.86,27.06,33.63,22.38z"/>
<path class="st0" d="M31.12,20.36l1.23,1.04"/>
<path class="st0" d="M29.82,21.76l1.09,1.17"/>
<path class="st0" d="M28.45,22.9l0.89,1.24"/>
<path class="st0" d="M32.12,18.96l1.31,0.9"/>
<path class="st2" d="M19.61,18.94c0.03-0.09,0.23-0.83,0.26-0.92c2.22,0.04,2.33-0.03,2.66-1.13c0.62-2.06,0.8-2.43,1.43-4.5
	c0.22-0.72,0.18-0.88-0.86-1.08l-0.63-0.12c0.02-0.08,0.17-0.78,0.19-0.85c1.53,0,3.06-0.1,4.58-0.3l-2.06,7.12
	c-0.32,1.11-0.28,1.2,1.85,1.61c-0.02,0.09-0.22,0.83-0.25,0.92L19.61,18.94z"/>
</svg>
