<?xml version="1.0" encoding="utf-8"?>
<!-- Generator: Adobe Illustrator 26.0.1, SVG Export Plug-In . SVG Version: 6.00 Build 0)  -->
<svg version="1.2" baseProfile="tiny" id="Layer_1" xmlns="http://www.w3.org/2000/svg" xmlns:xlink="http://www.w3.org/1999/xlink"
	 x="0px" y="0px" viewBox="0 0 50 50" overflow="visible" xml:space="preserve">
<g>
	<path fill="none" d="M18.1,6.6c1.8,0.9,3.4,2.2,4.6,3.8c-2,3-3.1,6.6-3.1,10.3v0.8c-3.8-0.1-7.3-1.6-10-4.3
		c-2.7-2.8-4.3-6.5-4.3-10.4V5h6.1l0,0C13.7,5,16,5.6,18.1,6.6z M27.4,28.5h9.3v13.6c0,0.8-0.3,1.5-0.8,2.1c-0.5,0.5-1.3,0.8-2,0.8
		H16.7c-0.8,0-1.5-0.3-2-0.8c-0.5-0.5-0.9-1.3-0.9-2.1V28.5h9.3h1.4v-1.4v-6.4c0-3.6,1.4-7.1,4-9.6c2.5-2.6,6-4,9.6-4h5v2.9
		c0,3.6-1.4,7.1-4,9.6c-2.5,2.5-6,4-9.6,4h-2.1H26V25v2.1v1.4C26,28.5,27.4,28.5,27.4,28.5z"/>
	<path fill="#191B1A" d="M33.8,46H16.7c-1,0-2-0.4-2.7-1.1c-0.7-0.7-1.1-1.7-1.1-2.8V27.5h10.7v-6.8c0-3.9,1.6-7.6,4.3-10.3
		c2.7-2.7,6.4-4.3,10.3-4.3h6V10c0,3.9-1.6,7.6-4.3,10.3c-2.7,2.7-6.4,4.3-10.3,4.3H27v2.9h10.7v14.6c0,1-0.4,2-1.1,2.8
		C35.8,45.6,34.8,46,33.8,46z M14.8,29.5v12.6c0,0.5,0.2,1,0.6,1.4c0.3,0.3,0.8,0.5,1.3,0.5h17.1c0.5,0,1-0.2,1.3-0.5
		c0.4-0.4,0.6-0.8,0.6-1.4V29.5H14.8z M25.5,22.6h4c3.3,0,6.5-1.3,8.9-3.7c2.3-2.3,3.7-5.6,3.7-8.9V8.1h-4c-3.3,0-6.5,1.3-8.9,3.7
		c-2.3,2.3-3.7,5.6-3.7,8.9V22.6z M20.6,22.5l-1,0c-4-0.1-7.8-1.7-10.7-4.6c-2.9-2.9-4.6-7-4.6-11.1V4h7.1c2.5,0,5,0.6,7.2,1.7l0,0
		c1.9,1,3.6,2.4,5,4l0.5,0.6L23.5,11c-2,2.9-3,6.3-3,9.7V22.5z M6.3,6v0.8c0,3.6,1.5,7.1,4,9.7c2.2,2.2,5.2,3.6,8.3,3.9
		c0-3.5,1-6.9,2.9-9.9c-1.1-1.2-2.4-2.2-3.9-3c-1.9-1-4.1-1.5-6.3-1.5H6.3z"/>
</g>
</svg>
