<?xml version="1.0" encoding="utf-8"?>
<!-- Generator: Adobe Illustrator 24.0.0, SVG Export Plug-In . SVG Version: 6.00 Build 0)  -->
<svg version="1.1" id="Layer_1" xmlns="http://www.w3.org/2000/svg" xmlns:xlink="http://www.w3.org/1999/xlink" x="0px" y="0px"
	 viewBox="0 0 50 50" style="enable-background:new 0 0 50 50;" xml:space="preserve">
<style type="text/css">
	.st0{fill:#62863A;stroke:#191B1A;stroke-width:2;}
</style>
<path class="st0" d="M18.16,7.17c1.76,0.93,3.31,2.22,4.55,3.78c-2.01,3.04-3.09,6.63-3.08,10.31v0.75
	c-3.68-0.09-7.2-1.61-9.82-4.28c-2.69-2.75-4.21-6.48-4.21-10.37V5.54h5.96h0C13.87,5.53,16.13,6.09,18.16,7.17z M27.3,29.05h9.11
	v13.59c0,0.78-0.3,1.51-0.83,2.06c-0.53,0.54-1.25,0.84-1.99,0.84H16.81c-0.74,0-1.46-0.3-1.99-0.84C14.3,44.15,14,43.42,14,42.64
	V29.05h9.11h1.37v-1.38v-6.41c0-3.61,1.41-7.07,3.9-9.61c2.5-2.55,5.88-3.97,9.4-3.97h4.92v2.9c0,3.61-1.41,7.07-3.9,9.61
	c-2.5,2.55-5.88,3.97-9.4,3.97h-2.1h-1.37v1.38v2.14v1.38H27.3z"/>
</svg>
