<?xml version="1.0" encoding="utf-8"?>
<!-- Generator: Adobe Illustrator 24.0.0, SVG Export Plug-In . SVG Version: 6.00 Build 0)  -->
<svg version="1.1" id="Layer_1" xmlns="http://www.w3.org/2000/svg" xmlns:xlink="http://www.w3.org/1999/xlink" x="0px" y="0px"
	 viewBox="0 0 50 50" style="enable-background:new 0 0 50 50;" xml:space="preserve">
<style type="text/css">
	.st0{fill:#62863A;stroke:#191B1A;stroke-width:2;}
</style>
<path class="st0" d="M25.82,45.47c-0.4-0.45-0.92-1.03-1.53-1.73c-1.48-1.72-3.46-4.14-5.43-6.9c-1.98-2.76-3.93-5.85-5.39-8.92
	c-1.47-3.09-2.38-6.06-2.38-8.62c0-7.59,6.52-13.83,14.73-13.83c8.2,0,14.73,6.24,14.73,13.83c0,2.56-0.91,5.53-2.38,8.62
	c-1.46,3.07-3.41,6.15-5.39,8.92c-1.97,2.76-3.95,5.17-5.43,6.9C26.74,44.43,26.22,45.02,25.82,45.47z M18.82,19.3
	c0,3.74,3.2,6.66,7,6.66s7-2.93,7-6.66c0-3.74-3.2-6.66-7-6.66S18.82,15.56,18.82,19.3z"/>
</svg>
