<?xml version="1.0" encoding="utf-8"?>
<!-- Generator: Adobe Illustrator 24.0.0, SVG Export Plug-In . SVG Version: 6.00 Build 0)  -->
<svg version="1.1" id="Layer_1" xmlns="http://www.w3.org/2000/svg" xmlns:xlink="http://www.w3.org/1999/xlink" x="0px" y="0px"
	 viewBox="0 0 50 50" style="enable-background:new 0 0 50 50;" xml:space="preserve">
<style type="text/css">
	.st0{fill:#FBFCFD;stroke:#191B1A;stroke-width:2;}
</style>
<path class="st0" d="M25,45.76c-0.4-0.45-0.91-1.03-1.51-1.73c-1.46-1.72-3.41-4.14-5.36-6.9c-1.95-2.76-3.88-5.85-5.32-8.92
	c-1.45-3.09-2.35-6.06-2.35-8.62C10.47,12,16.91,5.76,25,5.76c8.09,0,14.53,6.24,14.53,13.83c0,2.56-0.9,5.53-2.35,8.62
	c-1.44,3.07-3.37,6.15-5.32,8.92c-1.95,2.76-3.9,5.17-5.36,6.9C25.92,44.73,25.4,45.31,25,45.76z M18.1,19.59
	c0,3.74,3.15,6.66,6.9,6.66s6.9-2.93,6.9-6.66c0-3.74-3.15-6.66-6.9-6.66S18.1,15.85,18.1,19.59z"/>
</svg>
