<?xml version="1.0" encoding="utf-8"?>
<!-- Generator: Adobe Illustrator 24.0.0, SVG Export Plug-In . SVG Version: 6.00 Build 0)  -->
<svg version="1.1" id="Layer_1" xmlns="http://www.w3.org/2000/svg" xmlns:xlink="http://www.w3.org/1999/xlink" x="0px" y="0px"
	 viewBox="0 0 50 50" style="enable-background:new 0 0 50 50;" xml:space="preserve">
<style type="text/css">
	.st0{fill:#FEED53;}
</style>
<ellipse class="st0" cx="25.62" cy="30.47" rx="16.99" ry="16.77"/>
<path d="M28.56,21.07v-4.91c0-0.1-0.03-0.19-0.08-0.28c-0.05-0.08-0.12-0.16-0.2-0.21l5.71-8.45H23.05l-1.84,2.68l-1.84-2.68H8.43
	l5.7,8.45c-0.08,0.05-0.15,0.12-0.2,0.21c-0.05,0.08-0.07,0.18-0.08,0.28v4.91c-2.6,2.07-4.26,5.22-4.26,8.74
	c0,6.23,5.2,11.29,11.62,11.29c0.4,0,0.79-0.02,1.17-0.06c5.86-0.57,10.44-5.38,10.44-11.23C32.83,26.29,31.17,23.14,28.56,21.07z
	 M26.34,7.79h3.68l-5.13,7.47l-1.84-2.68L26.34,7.79z M26.72,17.95l0.57-0.82c0.03,0.07,0.05,0.15,0.05,0.23v2.38
	c0,0.07-0.02,0.15-0.05,0.21c-0.03,0.07-0.07,0.13-0.13,0.18c-1.74-1.01-3.77-1.61-5.95-1.61c-2.1,0-4.16,0.56-5.95,1.61
	c-0.11-0.1-0.17-0.25-0.17-0.4v-2.38c0-0.08,0.02-0.16,0.05-0.23l0.57,0.82H26.72z M12.41,7.79h3.68l6.58,9.59h-3.68L12.41,7.79z
	 M21.21,39.41c-5.45,0-9.87-4.3-9.87-9.6s4.42-9.6,9.87-9.6c5.45,0,9.87,4.3,9.87,9.6S26.66,39.41,21.21,39.41z"/>
<path d="M21.35,21.09c-5.03,0-9.11,3.97-9.11,8.87c0,1.46,0.37,2.84,1.01,4.05c-0.33-0.99-0.51-2.03-0.51-3.07
	c0-5.19,4.13-9.44,9.37-9.82C21.86,21.1,21.6,21.09,21.35,21.09z"/>
<path d="M25.01,37.23c-0.89,0.58-1.87,1.02-2.9,1.31c1.44-0.17,2.82-0.67,4.02-1.46c4.18-2.73,5.32-8.18,2.54-12.18
	c-0.14-0.2-0.29-0.39-0.45-0.58C30.78,28.68,29.44,34.33,25.01,37.23z"/>
<path d="M25.21,32.16c0-0.74-0.21-1.36-0.62-1.88c-0.41-0.52-0.96-0.85-1.65-1c1.15-0.64,1.73-1.49,1.73-2.55
	c0-0.75-0.28-1.43-0.84-2.02c-0.68-0.73-1.59-1.1-2.72-1.1c-0.66,0-1.26,0.13-1.79,0.38c-0.53,0.25-0.95,0.6-1.25,1.04
	c-0.3,0.44-0.52,1.03-0.67,1.76l2.12,0.36c0.06-0.53,0.23-0.93,0.51-1.21c0.13-0.13,0.29-0.24,0.46-0.31
	c0.17-0.07,0.36-0.11,0.55-0.1c0.4,0,0.72,0.12,0.96,0.37c0.24,0.24,0.36,0.57,0.36,0.98c0,0.48-0.16,0.87-0.49,1.16
	c-0.33,0.29-0.8,0.43-1.43,0.41l-0.25,1.9c0.41-0.12,0.76-0.17,1.06-0.17c0.45,0,0.83,0.17,1.14,0.51c0.31,0.34,0.47,0.81,0.47,1.39
	c0,0.62-0.16,1.11-0.49,1.48c-0.33,0.36-0.73,0.55-1.2,0.55c-0.44,0-0.82-0.15-1.13-0.46c-0.31-0.3-0.5-0.74-0.57-1.32l-2.23,0.27
	c0.11,1.02,0.53,1.85,1.25,2.48c0.72,0.63,1.62,0.95,2.71,0.95c1.15,0,2.11-0.38,2.88-1.13C24.82,34.14,25.21,33.23,25.21,32.16z"/>
</svg>
