<?xml version="1.0" encoding="utf-8"?>
<!-- Generator: Adobe Illustrator 24.0.0, SVG Export Plug-In . SVG Version: 6.00 Build 0)  -->
<svg version="1.1" id="Layer_1" xmlns="http://www.w3.org/2000/svg" xmlns:xlink="http://www.w3.org/1999/xlink" x="0px" y="0px"
	 viewBox="0 0 50 50" style="enable-background:new 0 0 50 50;" xml:space="preserve">
<style type="text/css">
	.st0{fill:#FEED53;}
</style>
<ellipse class="st0" cx="25.05" cy="27.69" rx="17.06" ry="16.91"/>
<path d="M29.45,20.2c-0.28-0.03-0.56-0.04-0.84-0.04c-5.55,0-10.04,4.46-10.04,9.97c0,1.64,0.41,3.19,1.12,4.55
	c-0.37-1.11-0.56-2.27-0.56-3.44C19.13,25.4,23.68,20.63,29.45,20.2"/>
<path d="M32.64,38.29c-0.98,0.65-2.06,1.15-3.19,1.47c1.58-0.19,3.1-0.75,4.43-1.63c4.61-3.07,5.86-9.2,2.79-13.68
	c-0.16-0.22-0.32-0.44-0.5-0.65C39,28.7,37.52,35.04,32.64,38.29"/>
<path d="M36.56,20.14v-5.52c0-0.23-0.13-0.42-0.31-0.55l6.29-9.49H30.48l-2.02,3.01L26.43,4.6H14.38l6.28,9.49
	c-0.18,0.12-0.31,0.32-0.31,0.55v5.52c-2.87,2.33-4.7,5.86-4.7,9.82c0,7,5.73,12.68,12.8,12.68c0.44,0,0.87-0.02,1.29-0.06
	c6.46-0.64,11.51-6.05,11.51-12.62C41.26,26,39.42,22.47,36.56,20.14z M34.11,5.23h4.05l-5.65,8.4l-2.02-3.01L34.11,5.23z
	 M34.53,16.64l0.62-0.92c0.03,0.08,0.05,0.17,0.05,0.26v2.68c0,0.08-0.02,0.16-0.05,0.24c-0.03,0.08-0.08,0.15-0.14,0.2
	c-1.92-1.14-4.16-1.81-6.56-1.81c-2.31,0-4.58,0.63-6.56,1.81c-0.12-0.12-0.19-0.28-0.19-0.44v-2.68c0-0.09,0.02-0.18,0.05-0.26
	l0.62,0.93L34.53,16.64L34.53,16.64z M18.76,5.23h4.05L30.06,16h-4.05L18.76,5.23z M28.46,40.74c-6.01,0-10.88-4.83-10.88-10.78
	c0-5.95,4.87-10.78,10.88-10.78c6.01,0,10.88,4.83,10.88,10.78C39.34,35.92,34.47,40.74,28.46,40.74z"/>
<path d="M29.89,34.53V22.99h-2.46c0,0.25-0.05,0.5-0.15,0.74c-0.1,0.23-0.24,0.45-0.42,0.62c-0.18,0.18-0.39,0.32-0.63,0.42
	c-0.24,0.1-0.49,0.15-0.74,0.15v2.41c0.18,0,1.5-0.1,1.94-0.27v7.49h-1.94v2.41h6.34v-2.41H29.89z"/>
</svg>
