<?xml version="1.0" encoding="utf-8"?>
<!-- Generator: Adobe Illustrator 24.0.0, SVG Export Plug-In . SVG Version: 6.00 Build 0)  -->
<svg version="1.1" id="Layer_1" xmlns="http://www.w3.org/2000/svg" xmlns:xlink="http://www.w3.org/1999/xlink" x="0px" y="0px"
	 viewBox="0 0 50 50" style="enable-background:new 0 0 50 50;" xml:space="preserve">
<style type="text/css">
	.st0{fill:#FEED53;}
</style>
<ellipse class="st0" cx="25.85" cy="30.84" rx="15.57" ry="15.39"/>
<path d="M36.54,19.22v-4.61c0-0.19-0.11-0.35-0.26-0.46l5.26-7.92H31.46l-1.69,2.51l-1.69-2.51H17.98l5.26,7.92
	c-0.15,0.1-0.26,0.26-0.26,0.46v4.61c-2.4,1.94-3.93,4.89-3.93,8.2c0,5.85,4.8,10.59,10.71,10.59c0.37,0,0.73-0.02,1.08-0.05
	c5.41-0.54,9.63-5.05,9.63-10.54C40.47,24.11,38.94,21.16,36.54,19.22z M34.49,6.76h3.39l-4.73,7.01l-1.69-2.51L34.49,6.76z
	 M34.85,16.29l0.52-0.77c0.03,0.07,0.04,0.14,0.04,0.21v2.23c0,0.07-0.01,0.14-0.04,0.2s-0.07,0.12-0.12,0.17
	c-1.61-0.95-3.48-1.51-5.49-1.51c-1.94,0-3.83,0.52-5.49,1.51c-0.1-0.1-0.16-0.23-0.16-0.37v-2.23c0-0.08,0.02-0.15,0.04-0.21
	l0.52,0.77L34.85,16.29L34.85,16.29z M21.64,6.76h3.39l6.07,8.99h-3.39L21.64,6.76z M29.76,36.41c-5.03,0-9.11-4.03-9.11-9
	c0-4.97,4.08-9,9.11-9c5.03,0,9.11,4.03,9.11,9C38.87,32.38,34.79,36.41,29.76,36.41z"/>
<path d="M29.89,19.23c-4.64,0-8.41,3.73-8.41,8.32c0,1.37,0.34,2.66,0.93,3.8c-0.31-0.93-0.47-1.9-0.47-2.88
	c0-4.87,3.81-8.86,8.64-9.21C30.36,19.24,30.12,19.23,29.89,19.23z"/>
<path d="M33.26,34.37c-0.82,0.54-1.72,0.96-2.67,1.23c1.33-0.16,2.6-0.63,3.71-1.37c3.86-2.56,4.91-7.68,2.34-11.42
	c-0.13-0.19-0.27-0.37-0.42-0.55C38.59,26.36,37.35,31.65,33.26,34.37z"/>
<path d="M33.21,31.23h-4.88v-1.2c0-0.43,0.17-0.83,0.48-1.14c0.3-0.3,0.72-0.47,1.15-0.47c0.43,0,0.85-0.08,1.24-0.24
	c0.39-0.16,0.75-0.4,1.05-0.7c0.3-0.3,0.54-0.65,0.7-1.04c0.16-0.39,0.25-0.81,0.25-1.23c0-1.57-0.8-3.62-3.66-3.62
	c-1.9,0-3.25,1.43-3.25,3.62h2.03c0-0.83,0.63-1.59,1.45-1.59c0.97,0,1.4,0.63,1.4,1.19c0,0.43-0.17,0.83-0.48,1.14
	c-0.3,0.3-0.72,0.47-1.15,0.47c-0.43,0-0.85,0.08-1.24,0.24c-0.39,0.16-0.75,0.4-1.05,0.7c-0.3,0.3-0.54,0.65-0.7,1.04
	c-0.16,0.39-0.25,0.81-0.25,1.23v3.61h6.91L33.21,31.23L33.21,31.23z"/>
</svg>
