<?xml version="1.0" encoding="utf-8"?>
<!-- Generator: Adobe Illustrator 24.0.0, SVG Export Plug-In . SVG Version: 6.00 Build 0)  -->
<svg version="1.1" id="Layer_1" xmlns="http://www.w3.org/2000/svg" xmlns:xlink="http://www.w3.org/1999/xlink" x="0px" y="0px"
	 viewBox="0 0 50 50" style="enable-background:new 0 0 50 50;" xml:space="preserve">
<style type="text/css">
	.st0{opacity:0.95;}
	.st1{fill:#FEED53;}
	.st2{fill:none;stroke:#4B4B4B;stroke-width:2;stroke-miterlimit:10;}
	.st3{fill:none;stroke:#4B4B4B;stroke-width:2;stroke-linecap:round;stroke-linejoin:round;}
</style>
<g class="st0">
	<g>
		<ellipse class="st1" cx="25.61" cy="25.22" rx="20.1" ry="19.94"/>
	</g>
	<path class="st2" d="M40.67,37.03c7.04-8.66,5.99-21.09-2.35-27.76c-8.33-6.67-20.8-5.05-27.83,3.62
		c-7.04,8.66-5.99,21.09,2.35,27.76C21.18,47.31,33.64,45.69,40.67,37.03z"/>
	<path class="st2" d="M35.99,33.28l2.3,1.93"/>
	<path class="st2" d="M33.57,35.88l2.03,2.16"/>
	<path class="st2" d="M31.01,37.99l1.66,2.31"/>
	<path class="st2" d="M28.2,39.85l1.31,2.32"/>
	<path class="st2" d="M37.85,30.68l2.44,1.68"/>
	<path class="st3" d="M14.5,30.64c0.05-0.16,0.43-1.54,0.48-1.7c4.14,0.07,4.34-0.06,4.96-2.09c1.16-3.82,1.5-4.51,2.66-8.33
		c0.41-1.34,0.34-1.63-1.6-2l-1.18-0.22c0.04-0.14,0.31-1.44,0.35-1.58c2.86,0,5.71-0.18,8.54-0.55l-3.85,13.19
		c-0.6,2.06-0.53,2.22,3.45,2.99c-0.05,0.16-0.42,1.54-0.47,1.7L14.5,30.64z"/>
</g>
</svg>
