<?xml version="1.0" encoding="utf-8"?>
<!-- Generator: Adobe Illustrator 24.0.0, SVG Export Plug-In . SVG Version: 6.00 Build 0)  -->
<svg version="1.1" id="Layer_1" xmlns="http://www.w3.org/2000/svg" xmlns:xlink="http://www.w3.org/1999/xlink" x="0px" y="0px"
	 viewBox="0 0 50 50" style="enable-background:new 0 0 50 50;" xml:space="preserve">
<style type="text/css">
	.st0{fill:#FBFCFD;stroke:#191B1A;stroke-width:2;}
</style>
<path class="st0" d="M37.59,23.87h6.65v10.16c0,0.58-0.22,1.13-0.61,1.53c-0.38,0.4-0.89,0.61-1.42,0.61H29.87
	c-0.52,0-1.03-0.22-1.42-0.61c-0.38-0.4-0.61-0.95-0.61-1.53V23.87h6.65h1.06v-1.06V18c0-2.71,1.04-5.3,2.87-7.2
	c1.83-1.9,4.3-2.96,6.87-2.96h3.57v2.14c0,2.71-1.04,5.3-2.87,7.2c-1.83,1.9-4.3,2.96-6.87,2.96h-1.54h-1.06v1.06v1.6v1.06H37.59z
	 M26.01,6.23L26.01,6.23c1.68,0,3.33,0.42,4.82,1.22c1.28,0.69,2.42,1.65,3.33,2.82c-1.48,2.28-2.27,4.98-2.27,7.73v0.53
	c-2.67-0.08-5.22-1.21-7.13-3.19c-1.98-2.05-3.09-4.85-3.09-7.77V6.23H26.01z"/>
<path class="st0" d="M9.32,18.29c1.08,0.59,2.04,1.41,2.82,2.4l-0.89,6.84h-1.06v0v0.35c-2.25-0.1-4.39-1.09-6-2.78
	c-1.71-1.8-2.67-4.24-2.67-6.8v-1.07h3.66h0C6.61,17.23,8.04,17.59,9.32,18.29z M15.3,32.86h5.69v8.88c0,0.49-0.18,0.95-0.5,1.28
	c-0.31,0.33-0.72,0.5-1.14,0.5H8.55c-0.42,0-0.83-0.17-1.14-0.5c-0.31-0.33-0.5-0.79-0.5-1.28v-8.88h5.69h1.06v-1.06v-4.26
	c0-2.37,0.9-4.64,2.48-6.3c1.58-1.66,3.71-2.58,5.91-2.58h2.99v1.78c0,2.37-0.9,4.64-2.48,6.3c-1.58,1.66-3.71,2.58-5.91,2.58H15.3
	h-1.06v1.06v1.42v1.06H15.3z"/>
</svg>
