<?xml version="1.0" encoding="utf-8"?>
<!-- Generator: Adobe Illustrator 24.0.0, SVG Export Plug-In . SVG Version: 6.00 Build 0)  -->
<svg version="1.1" id="Layer_1" xmlns="http://www.w3.org/2000/svg" xmlns:xlink="http://www.w3.org/1999/xlink" x="0px" y="0px"
	 viewBox="0 0 50 50" style="enable-background:new 0 0 50 50;" xml:space="preserve">
<style type="text/css">
	.st0{fill:#62863A;stroke:#191B1A;stroke-width:2;}
</style>
<path class="st0" d="M30.73,7.58c1.29,0.69,2.42,1.65,3.34,2.82c-1.48,2.29-2.28,4.99-2.27,7.75v0.54c-2.67-0.08-5.23-1.22-7.14-3.2
	c-1.98-2.06-3.1-4.86-3.1-7.78V6.36h4.35h0C27.58,6.36,29.23,6.77,30.73,7.58z M27.74,34.22V24.04h6.67h1.07v-1.07v-4.82
	c0-2.71,1.04-5.31,2.87-7.22c1.83-1.91,4.31-2.97,6.89-2.97h3.57v2.15c0,2.71-1.04,5.31-2.87,7.22c-1.83,1.91-4.31,2.97-6.89,2.97
	H37.5h-1.07v1.07v1.61v1.07h1.07h6.67v10.18c0,0.58-0.22,1.13-0.61,1.53c-0.38,0.4-0.89,0.61-1.42,0.61H29.76
	c-0.52,0-1.04-0.22-1.42-0.61l-0.77,0.74l0.77-0.74C27.96,35.35,27.74,34.8,27.74,34.22z"/>
<path class="st0" d="M9.18,18.44c1.09,0.59,2.05,1.41,2.83,2.4l-0.9,6.85h-1.07v0v0.35c-2.25-0.1-4.4-1.09-6.01-2.79
	c-1.71-1.8-2.68-4.25-2.68-6.81v-1.07h3.67h0C6.46,17.38,7.89,17.74,9.18,18.44z M6.76,41.93v-8.9h5.7h1.07v-1.07V27.7
	c0-2.38,0.9-4.65,2.48-6.31c1.58-1.66,3.71-2.59,5.93-2.59h2.99v1.78c0,2.38-0.9,4.65-2.48,6.31c-1.58,1.66-3.71,2.59-5.93,2.59
	h-1.35H14.1v1.07v1.42v1.07h1.07h5.7v8.9c0,0.49-0.19,0.95-0.5,1.28c-0.31,0.33-0.72,0.5-1.14,0.5H8.4c-0.42,0-0.83-0.17-1.14-0.5
	C6.95,42.88,6.76,42.42,6.76,41.93z"/>
</svg>
