<?xml version="1.0" encoding="utf-8"?>
<!-- Generator: Adobe Illustrator 24.0.0, SVG Export Plug-In . SVG Version: 6.00 Build 0)  -->
<svg version="1.1" id="Layer_1" xmlns="http://www.w3.org/2000/svg" xmlns:xlink="http://www.w3.org/1999/xlink" x="0px" y="0px"
	 viewBox="0 0 50 50" style="enable-background:new 0 0 50 50;" xml:space="preserve">
<style type="text/css">
	.st0{fill:#FBFCFD;stroke:#191B1A;stroke-width:2;}
</style>
<path class="st0" d="M35.59,7.82V9.2h1.4h7.47c0.38,0,0.7,0.12,0.89,0.27c0.18,0.14,0.2,0.26,0.2,0.29v34.98
	c0,0.03-0.01,0.15-0.2,0.29c-0.19,0.15-0.51,0.27-0.89,0.27H4.62c-0.38,0-0.7-0.12-0.89-0.27c-0.18-0.14-0.2-0.26-0.2-0.29V9.76
	c0-0.03,0.01-0.15,0.2-0.29C3.92,9.32,4.24,9.2,4.62,9.2h7.47h1.4V7.82V5.31h2.18v2.51V9.2h1.4h14.94h1.4V7.82V5.31h2.18V7.82z
	 M12.09,18.1h-1.4v1.38v3.89v1.38h1.4h24.9h1.4v-1.38v-3.89V18.1h-1.4H12.09z M12.09,25.88h-1.4v1.38v3.89v1.38h1.4h24.9h1.4v-1.38
	v-3.89v-1.38h-1.4H12.09z"/>
</svg>
