<?xml version="1.0" encoding="utf-8"?>
<!-- Generator: Adobe Illustrator 24.0.0, SVG Export Plug-In . SVG Version: 6.00 Build 0)  -->
<svg version="1.1" id="Layer_1" xmlns="http://www.w3.org/2000/svg" xmlns:xlink="http://www.w3.org/1999/xlink" x="0px" y="0px"
	 viewBox="0 0 50 50" style="enable-background:new 0 0 50 50;" xml:space="preserve">
<style type="text/css">
	.st0{fill:#62863A;}
	.st1{fill:#62863A;stroke:#191B1A;stroke-width:2;}
</style>
<rect x="6.59" y="10.87" class="st0" width="36.61" height="24.52"/>
<path class="st1" d="M36.3,5.71V7h1.31h7.63c0.42,0,0.78,0.13,1,0.3c0.21,0.16,0.24,0.3,0.24,0.35v34.84c0,0.05-0.02,0.18-0.24,0.35
	c-0.22,0.17-0.58,0.3-1,0.3H4.56c-0.42,0-0.78-0.13-1-0.3c-0.21-0.16-0.24-0.3-0.24-0.35V7.65c0-0.05,0.02-0.18,0.24-0.35
	C3.78,7.13,4.14,7,4.56,7h7.63h1.31V5.71V3.13h2.47v2.58V7h1.31h15.25h1.31V5.71V3.13h2.47V5.71z M12.19,16.03h-1.31v1.29v3.87v1.29
	h1.31h25.42h1.31v-1.29v-3.87v-1.29h-1.31H12.19z M12.19,23.78h-1.31v1.29v3.87v1.29h1.31h25.42h1.31v-1.29v-3.87v-1.29h-1.31H12.19
	z"/>
</svg>
