<?xml version="1.0" encoding="utf-8"?>
<!-- Generator: Adobe Illustrator 26.0.0, SVG Export Plug-In . SVG Version: 6.00 Build 0)  -->
<svg version="1.1" id="Layer_1" xmlns="http://www.w3.org/2000/svg" xmlns:xlink="http://www.w3.org/1999/xlink" x="0px" y="0px"
	 viewBox="0 0 103 102" style="enable-background:new 0 0 103 102;" xml:space="preserve">
<style type="text/css">
	.st0{fill:#80F9CD;}
	.st1{fill:#88DFC0;}
	.st2{fill:#99ECCE;}
	.st3{fill:#4A4A4A;}
	.st4{fill:#FFFFFF;}
	.st5{fill:#64C5A2;}
</style>
<path class="st0" d="M45.5,25.1c-0.6,0-1.3-0.2-1.8-0.7c-1-1-1-2.5,0-3.5l6.9-6.9c1-1,2.5-1,3.5,0l5.5,5.5c1,1,1,2.5,0,3.5
	c-1,1-2.5,1-3.5,0l-3.8-3.8l-5.1,5.1C46.7,24.9,46.1,25.1,45.5,25.1z"/>
<path class="st1" d="M49.2,88.2c-1.7,0-3.4-0.2-5.1-0.5c-7.4-1.4-13.9-5.6-18.1-12c-4.2-6.3-5.6-13.9-4.1-21.3l0,0l8.6-40.2
	c0.2-1.2,1.1-2.1,2.2-2.5c1.1-0.4,2.3-0.1,3.2,0.6L67.3,39c5.8,4.9,9.2,11.8,9.7,19.4c0.5,7.6-2,14.8-7.1,20.5
	C64.7,84.8,57,88.2,49.2,88.2z M26.8,55.5c-1.3,6.1-0.1,12.3,3.3,17.5c3.5,5.2,8.7,8.7,14.8,9.8c7.8,1.5,16-1.3,21.3-7.2
	c4.2-4.6,6.2-10.6,5.8-16.8s-3.3-11.9-8-15.9L34.9,17.9L26.8,55.5z"/>
<path class="st2" d="M37.9,42.2l29.5-28.7c0.5-0.5,1.3-0.2,1.4,0.4l4.3,15.1l1.2,4.1l1.2,4.1l1.2,4.1l1.2,4.1l2.3,8
	c3.9,13.7-4.3,28-18.1,31.5c-8.6,2.2-17.7-0.2-24.1-6.5C27.6,68.6,27.6,52.2,37.9,42.2z"/>
<path class="st3" d="M57.9,62.7c-1.1,0-2.1-0.4-2.8-1.2l-0.8-0.8c-0.5-0.5-0.5-1.3,0-1.8s1.3-0.5,1.8,0l0.8,0.8
	c0.6,0.6,1.6,0.6,2.1,0l0.8-0.8c0.5-0.5,1.3-0.5,1.8,0c0.5,0.5,0.5,1.3,0,1.8l-0.8,0.8C59.9,62.3,58.9,62.7,57.9,62.7z"/>
<circle class="st3" cx="47.6" cy="52.3" r="3.4"/>
<circle class="st3" cx="67.3" cy="52.3" r="3.4"/>
<g>
	<path class="st3" d="M51,52.3c0,1.9-1.5,3.5-3.4,3.5c-1.9,0-3.5-1.5-3.5-3.5c0-1.9,1.5-3.4,3.5-3.4c0.3,0,0.7,0.1,1,0.2
		c1.1,0.3,1.9,1.2,2.3,2.2c0,0,0,0,0,0C51,51.6,51,51.9,51,52.3z"/>
	<path class="st4" d="M50.8,51.2C50.8,51.2,50.8,51.2,50.8,51.2c-0.3,0.6-0.9,1.1-1.6,1.1c-1,0-1.7-0.8-1.7-1.7c0-0.7,0.4-1.3,1-1.6
		C49.6,49.3,50.5,50.2,50.8,51.2z"/>
</g>
<path class="st5" d="M53.9,84.3c-2.9,0-5.8-0.4-8.5-0.8L41,82.7c-1-0.2-1.7-1.1-1.5-2.1c0.2-1,1.1-1.7,2.1-1.5l4.4,0.7
	c5.2,0.9,11.3,1.5,16.4-0.8c13-5.9,17-21,10.7-40.5c-0.3-1,0.2-2,1.2-2.3c1-0.3,2,0.2,2.3,1.2c6.9,21.1,2,38.4-12.7,45
	C60.7,83.8,57.3,84.3,53.9,84.3z"/>
<path class="st3" d="M55.6,88.3c-7.2,0-14.3-2.8-19.6-8c-5.4-5.3-8.4-12.4-8.4-20c0-7.6,3-14.7,8.5-19.9l29.5-28.7
	c0.9-0.8,2-1.1,3.2-0.8c1.1,0.3,2,1.2,2.4,2.3l4.3,15.1c0.4,1.3-0.4,2.7-1.7,3.1c-1.3,0.4-2.7-0.4-3.1-1.7l-3.5-12.5L39.5,44
	c-4.5,4.3-6.9,10.2-6.9,16.4c0,6.2,2.4,12.1,6.9,16.4c5.7,5.6,14,7.8,21.7,5.8c6-1.5,11.1-5.4,14.2-10.8c3.1-5.4,3.9-11.7,2.2-17.7
	L73,38c-0.4-1.3,0.4-2.7,1.7-3.1c1.3-0.4,2.7,0.4,3.1,1.7l4.6,16.2c2.1,7.3,1.1,14.9-2.7,21.5s-9.9,11.2-17.2,13.1
	C60.2,88.1,57.9,88.3,55.6,88.3z"/>
<g>
	<path class="st3" d="M70.7,52.3c0,1.9-1.5,3.4-3.4,3.4c-1.9,0-3.4-1.5-3.4-3.4c0-1.9,1.5-3.4,3.4-3.4c0.4,0,0.7,0,1,0.1
		c1.1,0.3,1.9,1.2,2.3,2.2C70.7,51.6,70.7,51.9,70.7,52.3z"/>
	<path class="st4" d="M70.6,51.2c-0.3,0.6-0.9,1.1-1.6,1.1c-0.9,0-1.7-0.8-1.7-1.7c0-0.7,0.4-1.3,1-1.6
		C69.4,49.3,70.2,50.2,70.6,51.2z"/>
</g>
</svg>
