<?xml version="1.0" encoding="utf-8"?>
<!-- Generator: Adobe Illustrator 26.0.0, SVG Export Plug-In . SVG Version: 6.00 Build 0)  -->
<svg version="1.1" id="Layer_1" xmlns="http://www.w3.org/2000/svg" xmlns:xlink="http://www.w3.org/1999/xlink" x="0px" y="0px"
	 viewBox="0 0 102 102" style="enable-background:new 0 0 102 102;" xml:space="preserve">
<style type="text/css">
	.st0{fill:#C799EC;}
	.st1{fill:#4A4A4A;}
	.st2{fill:#9B64C8;}
	.st3{fill:#FFFFFF;}
</style>
<g>
	<path class="st0" d="M64.5,91l2.3-57.1c0.3-6.2-3.1-11.9-8.5-14.8c-4.7-2.5-10.4-2.5-15.1,0l-1.5,0.8c-4.5,2.4-7.3,7.2-7.1,12.3
		l0.1,2.1l0.1,2.1l0.2,4.7l0,0.5l0,1.1l0.1,2.1l0.2,4.2l0.3,8.4L37.1,91H64.5z"/>
</g>
<g>
	<path class="st1" d="M38.3,90.7c0,0.8-0.6,1.5-1.4,1.5h-0.1c-0.8,0-1.4-0.6-1.5-1.4l-0.7-16.2l-4.5,0.7c-0.1,0-0.2,0-0.2,0
		c-0.7,0-1.3-0.5-1.5-1.2c-0.1-0.8,0.4-1.6,1.2-1.7l4.9-0.8l-0.4-10.9l-4,0.6c-0.1,0-0.2,0-0.2,0c-0.7,0-1.3-0.5-1.5-1.2
		c-0.1-0.8,0.4-1.6,1.2-1.7l4.3-0.7l-0.5-11l-4.3,0.7c-0.1,0-0.1,0-0.2,0c-0.7,0-1.3-0.5-1.5-1.2c-0.1-0.8,0.4-1.6,1.2-1.7l4.6-0.8
		l-0.1-2.9c0-0.8,0.6-1.5,1.4-1.5c0.8,0,1.5,0.6,1.5,1.4L38.3,90.7z"/>
</g>
<g>
	<path class="st1" d="M35.9,31.6c0-0.2,0-0.3,0-0.5C35.9,31.2,35.9,31.4,35.9,31.6z"/>
</g>
<g>
	<circle class="st1" cx="54.7" cy="30.2" r="1.6"/>
</g>
<g>
	<circle class="st1" cx="61.4" cy="30.2" r="1.6"/>
</g>
<g>
	<path class="st2" d="M35,37.5C35,37.5,35,37.5,35,37.5c-1,0-1.8-0.8-1.7-1.8C33.6,27.3,38,18,49.7,17.3c1-0.1,1.8,0.7,1.8,1.6
		s-0.7,1.8-1.6,1.8c-11.7,0.7-13,11.7-13.1,15.1C36.7,36.8,36,37.5,35,37.5z"/>
</g>
<g>
	<g>
		<path class="st1" d="M59.7,35.1c-0.2,0-0.4-0.1-0.5-0.2l-0.1-0.1c-0.3-0.3-0.9-0.3-1.3,0l-0.1,0.1c-0.3,0.3-0.8,0.3-1,0
			c-0.3-0.3-0.3-0.8,0-1l0.1-0.1c0.9-0.9,2.5-0.9,3.4,0l0.1,0.1c0.3,0.3,0.3,0.8,0,1C60.1,35,59.9,35.1,59.7,35.1z"/>
	</g>
	<g>
		<g>
			<path class="st1" d="M56.3,30.2c0,0.9-0.7,1.6-1.6,1.6c-0.9,0-1.6-0.7-1.6-1.6s0.7-1.6,1.6-1.6c0.2,0,0.3,0,0.5,0.1
				c0.5,0.2,0.9,0.6,1,1.1C56.3,29.9,56.3,30.1,56.3,30.2z"/>
		</g>
		<g>
			<path class="st3" d="M56.2,29.8c-0.1,0.3-0.4,0.5-0.7,0.5c-0.4,0-0.8-0.4-0.8-0.8c0-0.3,0.2-0.6,0.5-0.7
				C55.7,28.9,56.1,29.3,56.2,29.8z"/>
		</g>
	</g>
	<g>
		<g>
			<path class="st1" d="M63,30.2c0,0.9-0.7,1.6-1.6,1.6c-0.9,0-1.6-0.7-1.6-1.6s0.7-1.6,1.6-1.6c0.2,0,0.3,0,0.5,0.1
				c0.5,0.2,0.9,0.6,1,1.1C63,29.9,63,30.1,63,30.2z"/>
		</g>
		<g>
			<path class="st3" d="M62.9,29.8c-0.1,0.3-0.4,0.5-0.7,0.5c-0.4,0-0.8-0.4-0.8-0.8c0-0.3,0.2-0.6,0.5-0.7
				C62.4,28.9,62.8,29.3,62.9,29.8z"/>
		</g>
	</g>
</g>
<g>
	<path class="st1" d="M73.5,46.3c-0.1,0.7-0.7,1.2-1.5,1.2c-0.1,0-0.2,0-0.2,0l-4.3-0.7l-0.4,11l4.3,0.7c0.8,0.1,1.3,0.9,1.2,1.7
		c-0.1,0.7-0.7,1.2-1.4,1.2c-0.1,0-0.2,0-0.2,0l-4-0.6l-0.4,10.9l4.9,0.8c0.8,0.1,1.3,0.9,1.2,1.7c-0.1,0.7-0.7,1.2-1.4,1.2
		c-0.1,0-0.2,0-0.2,0l-4.5-0.7l-0.7,16.2c0,0.8-0.7,1.4-1.5,1.4h-0.1c-0.8,0-1.4-0.7-1.4-1.5l2.3-57.1c0.2-5.6-2.8-10.9-7.7-13.5
		c-1.7-0.9-3.5-1.5-5.4-1.6v26.7l2.2-1.3c0.7-0.4,1.6-0.2,2,0.5c0.4,0.7,0.2,1.6-0.5,2L52,48.6v13l2.2-1.3c0.7-0.4,1.6-0.2,2,0.5
		c0.4,0.7,0.2,1.6-0.5,2L52,65.1v13l2.2-1.3c0.7-0.4,1.6-0.2,2,0.5c0.4,0.7,0.2,1.6-0.5,2L52,81.5v9.2c0,0.8-0.7,1.5-1.5,1.5
		c-0.8,0-1.5-0.7-1.5-1.5v-8.9l-4.3-2.5c-0.7-0.4-0.9-1.3-0.5-2c0.4-0.7,1.3-1,2-0.5l2.8,1.6v-13l-4.3-2.5c-0.7-0.4-0.9-1.3-0.5-2
		c0.4-0.7,1.3-0.9,2-0.5L49,62V49l-4.3-2.5c-0.7-0.4-0.9-1.3-0.5-2c0.4-0.7,1.3-1,2-0.5l2.8,1.6v-13L44.7,30c-0.7-0.4-0.9-1.3-0.5-2
		c0.4-0.7,1.3-1,2-0.5l2.8,1.6V18.5c-1.8,0.2-3.7,0.7-5.4,1.6l-1.5,0.8c-3.8,2-6.2,5.9-6.3,10.1v0c0,0.2,0,0.3,0,0.5
		c0,0.1,0,0.2,0,0.3l0.2,4.2c0,0.8-0.6,1.5-1.4,1.5c-0.8,0-1.5-0.6-1.5-1.4L33,33l-3.7,0.6c-0.1,0-0.1,0-0.2,0
		c-0.7,0-1.3-0.5-1.5-1.2c-0.1-0.8,0.4-1.6,1.2-1.7L33,30c0.5-4.9,3.4-9.3,7.8-11.7l1.5-0.8c1.4-0.7,2.8-1.3,4.3-1.6l-1.9-1.1
		c-0.7-0.4-0.9-1.3-0.5-2c0.4-0.7,1.3-0.9,2-0.5l2.8,1.7V11c0-0.8,0.7-1.5,1.5-1.5c0.8,0,1.5,0.7,1.5,1.5v2.5l2.2-1.3
		c0.7-0.4,1.6-0.2,2,0.5c0.4,0.7,0.2,1.6-0.5,2l-1.7,1c1.6,0.3,3.2,0.9,4.8,1.7c4.8,2.5,8.1,7.2,9,12.5l4.5,0.7
		c0.8,0.1,1.4,0.9,1.2,1.7c-0.1,0.7-0.7,1.2-1.5,1.2c-0.1,0-0.2,0-0.2,0L68.1,33c0,0.2,0,0.5,0,0.7l-0.4,10.1l4.6,0.8
		C73.1,44.7,73.6,45.5,73.5,46.3z"/>
</g>
</svg>
