<?xml version="1.0" encoding="utf-8"?>
<!-- Generator: Adobe Illustrator 26.0.0, SVG Export Plug-In . SVG Version: 6.00 Build 0)  -->
<svg version="1.1" id="Layer_1" xmlns="http://www.w3.org/2000/svg" xmlns:xlink="http://www.w3.org/1999/xlink" x="0px" y="0px"
	 viewBox="0 0 102 102" style="enable-background:new 0 0 102 102;" xml:space="preserve">
<style type="text/css">
	.st0{fill:#FCFF58;}
	.st1{fill:#4A4A4A;}
	.st2{fill:#FDFF84;}
	.st3{fill:#E5E84C;}
</style>
<g>
	<path class="st0" d="M33,47.8l0.1-31.6c0-0.5,0.6-0.8,1-0.6l27.4,15.7c9.1,5.2,12.3,16.9,7,26.1c-3.4,5.9-9.7,9.5-16.5,9.5
		C41.5,66.9,33,58.3,33,47.8z"/>
	<path class="st1" d="M52.1,68.6C52.1,68.6,52.1,68.6,52.1,68.6c-5.6,0-10.8-2.2-14.7-6.1c-3.9-3.9-6.1-9.2-6.1-14.7l0.1-31.6
		c0-0.9,0.5-1.6,1.2-2.1c0.7-0.4,1.7-0.4,2.4,0l27.4,15.7c4.8,2.8,8.3,7.2,9.7,12.6c1.5,5.4,0.7,11-2.1,15.8
		C66.4,64.6,59.5,68.6,52.1,68.6z M34.8,18l-0.1,29.8l0,0c0,4.6,1.8,9,5,12.3c3.3,3.3,7.6,5.1,12.3,5.1c0,0,0,0,0,0
		c6.2,0,11.9-3.3,15-8.7c2.3-4,2.9-8.7,1.7-13.2s-4.1-8.2-8.1-10.5L34.8,18z M33,47.8L33,47.8L33,47.8z"/>
</g>
<g>
	<path class="st0" d="M42.4,31.3l27.4-15.7c0.4-0.3,1,0.1,1,0.6l0.1,31.6c0,10.5-8.5,19.1-19,19.1c-6.8,0-13.1-3.6-16.5-9.5
		C30.1,48.2,33.3,36.6,42.4,31.3z"/>
	<path class="st1" d="M51.9,68.6c-7.4,0-14.3-4-18-10.4c-2.8-4.8-3.5-10.4-2.1-15.8c1.4-5.4,4.9-9.9,9.7-12.6l0,0L69,14.1
		c0.7-0.4,1.7-0.4,2.4,0c0.7,0.4,1.2,1.2,1.2,2.1l0.1,31.6c0,5.6-2.1,10.8-6.1,14.7C62.7,66.5,57.4,68.6,51.9,68.6
		C51.9,68.6,51.9,68.6,51.9,68.6z M43.3,32.8L43.3,32.8c-4,2.3-6.9,6-8.1,10.5c-1.2,4.5-0.6,9.1,1.7,13.2c3.1,5.3,8.8,8.7,15,8.7
		c0,0,0,0,0,0c4.6,0,9-1.8,12.3-5.1c3.3-3.3,5.1-7.6,5-12.3L69.1,18L43.3,32.8z"/>
</g>
<g>
	<path class="st0" d="M71.2,53l1.7,31.6c0,0.5-0.5,0.9-1,0.6L43.7,71.1c-9.4-4.7-13.3-16.2-8.5-25.6c3.1-6.1,9.1-10.1,15.9-10.5
		C61.6,34.4,70.6,42.5,71.2,53z"/>
	<path class="st1" d="M72.2,87c-0.4,0-0.7-0.1-1.1-0.3L42.9,72.6c-5-2.5-8.7-6.8-10.5-12c-1.8-5.3-1.3-10.9,1.1-15.9
		c3.3-6.6,10-11,17.4-11.4c5.6-0.3,10.9,1.5,15.1,5.3c4.1,3.7,6.6,8.8,6.9,14.4l0,0l1.7,31.6c0,0.9-0.4,1.7-1.1,2.1
		C73.2,86.8,72.7,87,72.2,87z M52.2,36.7c-0.3,0-0.7,0-1,0c-6.2,0.4-11.7,4-14.5,9.5c-2.1,4.1-2.4,8.8-1,13.2c1.5,4.4,4.6,8,8.7,10
		l26.6,13.3l-1.6-29.7c-0.3-4.6-2.3-8.9-5.7-12C60.5,38.3,56.4,36.7,52.2,36.7z"/>
</g>
<g>
	<path class="st0" d="M57.7,70.3L30.3,86c-0.4,0.3-1-0.1-1-0.6l-0.1-31.6c0-10.5,8.5-19.1,19-19.1c6.8,0,13.1,3.6,16.5,9.5
		C70,53.4,66.8,65.1,57.7,70.3z"/>
	<path class="st1" d="M29.9,87.8c-0.4,0-0.8-0.1-1.2-0.3c-0.7-0.4-1.2-1.2-1.2-2.1l-0.1-31.6c0-5.6,2.1-10.8,6.1-14.7
		c3.9-3.9,9.2-6.1,14.7-6.1c0,0,0,0,0,0c7.4,0,14.3,4,18,10.4c2.8,4.8,3.5,10.4,2.1,15.8c-1.5,5.4-4.9,9.9-9.7,12.6h0L31.1,87.5
		C30.8,87.7,30.4,87.8,29.9,87.8z M48.2,36.5C48.2,36.5,48.2,36.5,48.2,36.5c-4.6,0-9,1.8-12.3,5.1c-3.3,3.3-5.1,7.6-5,12.3L31,83.6
		l25.8-14.8c4-2.3,6.9-6,8.1-10.5c1.2-4.5,0.6-9.1-1.7-13.2C60.1,39.8,54.4,36.5,48.2,36.5z M57.7,70.3L57.7,70.3L57.7,70.3z"/>
</g>
<g>
	<path class="st0" d="M33.3,57.4L17.6,29.9c-0.3-0.4,0.1-1,0.6-1l31.6-0.1c10.5,0,19.1,8.5,19.1,19c0,6.8-3.6,13.1-9.5,16.5
		C50.2,69.7,38.6,66.5,33.3,57.4z"/>
	<path class="st1" d="M49.9,68.7c-1.8,0-3.6-0.2-5.5-0.7c-5.4-1.5-9.9-4.9-12.6-9.7L16.1,30.8c-0.4-0.7-0.4-1.7,0-2.4
		s1.2-1.2,2.1-1.2l31.6-0.1c5.6,0,10.8,2.1,14.7,6.1c3.9,3.9,6.1,9.2,6.1,14.7c0,7.4-4,14.3-10.4,18C57,67.7,53.5,68.7,49.9,68.7z
		 M20,30.7l14.8,25.8l0,0c2.3,4,6,6.9,10.5,8.1c4.5,1.2,9.1,0.6,13.2-1.7c5.3-3.1,8.7-8.8,8.7-15c0-4.6-1.8-9-5.1-12.3
		c-3.3-3.3-7.6-5-12.2-5c0,0,0,0-0.1,0L20,30.7z"/>
</g>
<g>
	<path class="st0" d="M49.8,68.2L18.2,68c-0.5,0-0.8-0.6-0.6-1l15.7-27.4c5.2-9.1,16.9-12.3,26.1-7c5.9,3.4,9.5,9.7,9.5,16.5
		C68.9,59.7,60.3,68.2,49.8,68.2z"/>
	<path class="st1" d="M49.8,69.9C49.8,69.9,49.8,69.9,49.8,69.9L49.8,69.9l-31.7-0.1c-0.9,0-1.6-0.5-2.1-1.2c-0.4-0.7-0.4-1.7,0-2.4
		l15.7-27.4c2.8-4.8,7.2-8.3,12.6-9.7c5.4-1.5,11-0.7,15.8,2.1c6.4,3.7,10.4,10.6,10.4,18c0,5.6-2.2,10.8-6.1,14.7
		C60.6,67.7,55.4,69.9,49.8,69.9z M49.8,66.4C49.8,66.4,49.8,66.4,49.8,66.4c4.7,0,9-1.8,12.3-5c3.3-3.3,5.1-7.6,5.1-12.3
		c0-6.2-3.3-11.9-8.7-15c-4-2.3-8.7-2.9-13.2-1.7c-4.5,1.2-8.2,4.1-10.5,8.1L20,66.3L49.8,66.4z"/>
</g>
<g>
	<path class="st0" d="M52.4,68.2L84,68c0.5,0,0.8-0.6,0.6-1L68.8,39.6c-5.2-9.1-16.9-12.3-26.1-7c-5.9,3.4-9.5,9.7-9.5,16.5
		C33.3,59.7,41.8,68.2,52.4,68.2z"/>
	<path class="st1" d="M52.3,69.9c-5.5,0-10.7-2.2-14.7-6.1c-3.9-3.9-6.1-9.2-6.1-14.7c0-7.4,4-14.3,10.4-18
		c4.8-2.8,10.4-3.5,15.8-2.1c5.4,1.5,9.9,4.9,12.6,9.7l15.7,27.4c0.4,0.7,0.4,1.7,0,2.4s-1.2,1.2-2.1,1.2L52.3,69.9L52.3,69.9
		C52.4,69.9,52.3,69.9,52.3,69.9z M52.4,68.2L52.4,68.2L52.4,68.2z M52.3,31.8c-3,0-6,0.8-8.6,2.3c-5.3,3.1-8.7,8.8-8.7,15
		c0,4.6,1.8,9,5.1,12.3c3.3,3.3,7.6,5,12.2,5c0,0,0,0,0.1,0l29.8-0.1L67.3,40.5c-2.3-4-6-6.9-10.5-8.1C55.3,32,53.8,31.8,52.3,31.8z
		"/>
</g>
<g>
	<path class="st0" d="M52.4,28.8L84,28.9c0.5,0,0.8,0.6,0.6,1L68.8,57.4c-5.2,9.1-16.9,12.3-26.1,7c-5.9-3.4-9.5-9.7-9.5-16.5
		C33.3,37.3,41.8,28.8,52.4,28.8z"/>
	<path class="st1" d="M52.3,68.7c-3.6,0-7.2-0.9-10.4-2.8c-6.4-3.7-10.4-10.6-10.4-18c0-5.6,2.2-10.8,6.1-14.7
		c3.9-3.9,9.1-6.1,14.7-6.1c0,0,0,0,0.1,0L84,27.2c0.9,0,1.6,0.5,2.1,1.2c0.4,0.7,0.4,1.7,0,2.4L70.3,58.2
		c-2.8,4.8-7.2,8.3-12.6,9.7C55.9,68.5,54.1,68.7,52.3,68.7z M52.3,30.6c-4.6,0-8.9,1.8-12.2,5c-3.3,3.3-5.1,7.6-5.1,12.3
		c0,6.2,3.3,11.9,8.7,15c4,2.3,8.7,2.9,13.2,1.7c4.5-1.2,8.2-4.1,10.5-8.1l14.8-25.8L52.3,30.6L52.3,30.6
		C52.3,30.6,52.3,30.6,52.3,30.6z M84,30.7L84,30.7L84,30.7z"/>
</g>
<g>
	<path class="st0" d="M92.6,48L65.3,63.9c-9.1,5.3-20.8,2.2-26.1-6.9c-3.4-5.9-3.4-13.2,0-19.1c5.3-9.1,17-12.2,26.1-6.9l5.9,3.4
		l11.2,6.5l5.6,3.3l4.6,2.7C93.1,47.1,93.1,47.7,92.6,48z"/>
</g>
<g>
	<path class="st1" d="M55.8,68.2c-1.8,0-3.6-0.2-5.4-0.7c-5.4-1.4-9.9-4.9-12.7-9.7C34,51.4,34,43.4,37.7,37
		c2.8-4.8,7.3-8.3,12.7-9.7c5.4-1.4,11-0.7,15.8,2.1l17.1,9.9c0.8,0.5,1.1,1.5,0.6,2.4c-0.5,0.8-1.5,1.1-2.4,0.6l-17.1-9.9
		c-4-2.3-8.7-3-13.2-1.8c-4.5,1.2-8.2,4.1-10.5,8.1c-3.1,5.3-3.1,12,0,17.3c2.3,4,6.1,6.9,10.5,8.1c4.5,1.2,9.1,0.6,13.2-1.8
		l25.8-15L88.1,46c-0.8-0.5-1.1-1.6-0.6-2.4c0.5-0.8,1.6-1.1,2.4-0.6l3.7,2.3c0.7,0.5,1.1,1.2,1.1,2.1c0,0.9-0.5,1.6-1.2,2
		L66.2,65.4C63,67.2,59.4,68.2,55.8,68.2z"/>
</g>
<g>
	<path class="st0" d="M38.9,63.9L11.5,48c-0.4-0.3-0.4-0.9,0-1.1l27.3-15.9c9.1-5.3,20.8-2.2,26.1,6.9c3.4,5.9,3.4,13.2,0,19.1
		C59.7,66.1,48,69.2,38.9,63.9z"/>
	<path class="st1" d="M48.4,68.2c-3.6,0-7.2-1-10.4-2.8l0,0L10.7,49.5c-0.7-0.4-1.2-1.2-1.2-2.1s0.5-1.6,1.2-2.1L38,29.4
		c4.8-2.8,10.4-3.6,15.8-2.1c5.4,1.4,9.9,4.9,12.7,9.7c3.7,6.4,3.7,14.4,0,20.8c-2.8,4.8-7.3,8.3-12.7,9.7
		C52,68,50.2,68.2,48.4,68.2z M39.7,62.4c4,2.3,8.7,3,13.2,1.8c4.5-1.2,8.2-4.1,10.5-8.1c3.1-5.3,3.1-12,0-17.3
		c-2.3-4-6.1-6.9-10.5-8.1c-4.5-1.2-9.2-0.6-13.2,1.8L14,47.4L39.7,62.4z"/>
</g>
<g>
	<path class="st0" d="M67.8,60.6L51.9,87.9c-0.3,0.4-0.9,0.4-1.1,0L34.9,60.6c-5.3-9.1-2.2-20.8,6.9-26.1c5.9-3.4,13.2-3.4,19.1,0
		C70,39.8,73.1,51.5,67.8,60.6z"/>
	<path class="st1" d="M51.3,90c-0.9,0-1.6-0.5-2.1-1.2L33.4,61.5c-2.8-4.8-3.6-10.4-2.1-15.8c1.4-5.4,4.9-9.9,9.7-12.7
		c6.4-3.7,14.4-3.7,20.8,0c4.8,2.8,8.3,7.3,9.7,12.7c1.4,5.4,0.7,11-2.1,15.8L53.4,88.8C53,89.5,52.2,90,51.3,90
		C51.3,90,51.3,90,51.3,90z M51.3,33.7c-3,0-6,0.8-8.7,2.3c-4,2.3-6.9,6.1-8.1,10.5s-0.6,9.2,1.8,13.2l15,25.7l15-25.7l0,0
		c2.3-4,3-8.7,1.8-13.2c-1.2-4.5-4.1-8.2-8.1-10.5C57.3,34.5,54.3,33.7,51.3,33.7z"/>
</g>
<g>
	<path class="st0" d="M34.9,37.5l15.9-27.3c0.3-0.4,0.9-0.4,1.1,0l15.9,27.3c5.3,9.1,2.2,20.8-6.9,26.1c-5.9,3.4-13.2,3.4-19.1,0
		C32.7,58.3,29.6,46.6,34.9,37.5z"/>
	<path class="st1" d="M51.3,67.8c-3.6,0-7.2-0.9-10.4-2.8c-4.8-2.8-8.3-7.3-9.7-12.7c-1.4-5.4-0.7-11,2.1-15.8L49.2,9.3
		c0.4-0.7,1.2-1.2,2.1-1.2c0.9,0,1.6,0.5,2.1,1.2l15.9,27.3c2.8,4.8,3.6,10.4,2.1,15.8c-1.4,5.4-4.9,9.9-9.7,12.7
		C58.5,66.9,54.9,67.8,51.3,67.8z M51.3,12.6l-15,25.7l0,0c-2.3,4-3,8.7-1.8,13.2c1.2,4.5,4.1,8.2,8.1,10.5c5.3,3.1,12,3.1,17.3,0
		c4-2.3,6.9-6.1,8.1-10.5c1.2-4.5,0.6-9.2-1.8-13.2L51.3,12.6z M34.9,37.5L34.9,37.5L34.9,37.5z"/>
</g>
<g>
	<circle class="st2" cx="51.1" cy="48.4" r="23.4"/>
	<path class="st1" d="M51.1,73.5C37.3,73.5,26,62.2,26,48.4s11.3-25.1,25.1-25.1c13.8,0,25.1,11.3,25.1,25.1S65,73.5,51.1,73.5z
		 M51.1,26.7c-11.9,0-21.6,9.7-21.6,21.6c0,11.9,9.7,21.6,21.6,21.6s21.6-9.7,21.6-21.6C72.8,36.4,63.1,26.7,51.1,26.7z"/>
</g>
<g>
	<path class="st1" d="M52.3,52.3c-0.7,0-1.5-0.3-2-0.8l-0.6-0.6c-0.3-0.3-0.3-0.9,0-1.2c0.3-0.3,0.9-0.3,1.2,0l0.6,0.6
		c0.4,0.4,1.1,0.4,1.5,0l0.6-0.6c0.3-0.3,0.9-0.3,1.2,0s0.3,0.9,0,1.2l-0.6,0.6C53.7,52,53,52.3,52.3,52.3z"/>
</g>
<g>
	<path class="st1" d="M44.6,47.3c-0.3,0-0.5-0.1-0.7-0.3c-0.3-0.4-0.2-0.9,0.2-1.2l1.6-1.2L44,43.3c-0.4-0.3-0.5-0.8-0.2-1.2
		c0.3-0.4,0.8-0.5,1.2-0.2l2,1.5c0.4,0.3,0.6,0.7,0.6,1.2s-0.2,0.9-0.6,1.2l-2,1.5C44.9,47.2,44.7,47.3,44.6,47.3z M46,44.7L46,44.7
		L46,44.7z"/>
</g>
<g>
	<path class="st1" d="M58.7,47.3c-0.2,0-0.4-0.1-0.5-0.2l-2-1.5c-0.4-0.3-0.6-0.7-0.6-1.2s0.2-0.9,0.6-1.2l2-1.5
		c0.4-0.3,0.9-0.2,1.2,0.2c0.3,0.4,0.2,0.9-0.2,1.2l-1.6,1.2l1.6,1.2c0.4,0.3,0.5,0.8,0.2,1.2C59.3,47.2,59,47.3,58.7,47.3z"/>
</g>
<g>
	<path class="st3" d="M50.5,71.1c-0.6,0-1.1-0.5-1.1-1.1s0.5-1.1,1.1-1.1c13.8,0,21-11.5,21-22.9c0-0.6,0.5-1.1,1.1-1.1
		s1.1,0.5,1.1,1.1C73.7,58.4,65.7,71.1,50.5,71.1z"/>
</g>
<g>
	<path class="st1" d="M51.1,73.5C37.3,73.5,26,62.2,26,48.4s11.3-25.1,25.1-25.1c13.8,0,25.1,11.3,25.1,25.1S65,73.5,51.1,73.5z
		 M51.1,26.7c-11.9,0-21.6,9.7-21.6,21.6c0,11.9,9.7,21.6,21.6,21.6s21.6-9.7,21.6-21.6C72.8,36.4,63.1,26.7,51.1,26.7z"/>
</g>
</svg>
